<svg xmlns="http://www.w3.org/2000/svg" viewBox="0 0 3117.31 1889.23"><title>Asset 11</title><g id="Layer_2" data-name="Layer 2"><g id="Layer_1-2" data-name="Layer 1"><g id="Layer_2-2" data-name="Layer 2"><g id="fram_x" data-name="fram x"><g id="final_logo" data-name="final logo"><g id="_x" data-name=" x"><g id="arrows_forward" data-name="arrows forward"><polygon points="1558.89 944.81 779.45 1889.23 779.45 0 1558.89 944.81 1558.89 944.81" fill="#14c6b5"/><polygon points="779.45 944.81 0 1889.23 0 0 779.45 944.81 779.45 944.81" fill="#14c6b5"/></g><g id="x"><polygon points="2338.02 944.62 1558.73 1889.23 779.45 1889.23 1558.73 944.62 2338.02 944.62" fill="#d8d8d8"/><polygon points="3117.31 0 2338.02 944.62 1558.73 944.62 2338.02 0 3117.31 0" fill="#d8d8d8"/><polygon points="2338.02 944.62 1558.73 0 779.45 0 1558.73 944.62 2338.02 944.62" fill="#d8d8d8"/><polygon points="3117.31 1889.23 2338.02 944.62 1558.73 944.62 2338.02 1889.23 3117.31 1889.23" fill="#d8d8d8"/></g></g></g></g></g></g></g></svg>