<svg xmlns="http://www.w3.org/2000/svg" viewBox="0 0 5458.835 938.021">
  <title>Asset 81</title>
  <g id="Layer_2" data-name="Layer 2">
    <g id="logo">
      <g id="fram">
        <path d="M0,.019H716.756V201.568H291.182v163.8H716.756V554.758H291.182V938.021H0Z" fill="#d8d8d8"/>
        <path d="M895.84,938.021V.019h483.17q134.391,0,205.427,23.035t114.553,85.417q43.512,62.384,43.517,151.962,0,78.069-33.3,134.685t-91.565,91.817q-37.137,22.4-101.814,37.111,51.792,17.3,75.465,34.581,15.99,11.532,46.367,49.317t40.609,58.276l140.391,271.8h-327.57L1336.132,651.374q-29.444-55.667-52.476-72.3-31.363-21.745-71.036-21.755h-25.6v380.7Zm291.182-557.938h122.232q19.829,0,76.8-12.8,28.8-5.758,47.037-29.433t18.239-54.386q0-45.423-28.8-69.742t-108.153-24.314H1187.022Z" fill="#d8d8d8"/>
        <path d="M2484.422,783.18H2155.293l-45.728,154.841h-296l352.618-938H2482.4l352.539,938H2531.36Zm-60.136-202.828L2320.732,243.157,2218.259,580.352Z" fill="#d8d8d8"/>
        <path d="M2830.335,0h381.256l147.033,570.735L3504.6,0h405.951l387.122,469L3910.555,938h-262.35V222.663L3465.267,938H3250.359l-182.6-715.338V938H2830.335Z" fill="#d8d8d8"/>
      </g>
      <g id="arrow">
        <polygon points="4684.798 469.001 4297.677 938.001 4297.677 0.001 4684.798 469.001 4684.798 469.001" fill="#14c6b5"/>
        <polygon points="4297.677 469.001 3910.555 938.001 3910.555 0.001 4297.677 469.001 4297.677 469.001" fill="#14c6b5"/>
      </g>
      <g id="x">
        <polygon points="4297.677 0.001 4684.798 469.001 5071.713 469.001 4684.798 0.001 4297.677 0.001" fill="#d8d8d8"/>
        <polygon points="5458.835 0.001 5071.713 469.001 4684.798 469.001 5071.713 0.001 5458.835 0.001" fill="#d8d8d8"/>
        <polygon points="4297.677 938.001 4684.798 469.001 5071.713 469.001 4684.798 938.001 4297.677 938.001" fill="#d8d8d8"/>
        <polygon points="5458.834 938.001 5071.713 469.001 4684.798 469.001 5071.713 938.001 5458.834 938.001" fill="#d8d8d8"/>
      </g>
    </g>
  </g>
</svg>
